	.include "MPlayDef.s"

	.equ	Title_grp, voicegroup000
	.equ	Title_pri, 0
	.equ	Title_rev, 0
	.equ	Title_mvl, 127
	.equ	Title_key, 0
	.equ	Title_tbs, 1
	.equ	Title_exg, 0
	.equ	Title_cmp, 1

	.section .rodata
	.global	Title
	.align	2

@**************** Track 1 (Midi-Chn.1) ****************@

Title_1:
	.byte	KEYSH , Title_key+0
@ 000   ----------------------------------------
	.byte	TEMPO , 120*Title_tbs/2
	.byte		VOICE , 51
	.byte		VOL   , 88*Title_mvl/mxv
	.byte		BEND  , c_v+0
	.byte		TIE   , Cn0 , v127
	.byte	W96
@ 001   ----------------------------------------
	.byte	W40
	.byte		EOT   
	.byte		N01   
	.byte	W56
@ 002   ----------------------------------------
	.byte	W96
@ 003   ----------------------------------------
	.byte	W96
@ 004   ----------------------------------------
	.byte	W24
	.byte	W03
	.byte		TIE   
	.byte	W68
	.byte	W01
@ 005   ----------------------------------------
	.byte	W96
@ 006   ----------------------------------------
	.byte	W96
@ 007   ----------------------------------------
	.byte	W96
@ 008   ----------------------------------------
	.byte	W96
@ 009   ----------------------------------------
	.byte	W96
@ 010   ----------------------------------------
	.byte	W96
@ 011   ----------------------------------------
	.byte	W96
@ 012   ----------------------------------------
	.byte	W80
	.byte	W01
	.byte		EOT   
	.byte	W01
	.byte		VOICE , 49
	.byte		TIE   , Ds0 
	.byte	W14
@ 013   ----------------------------------------
	.byte	W96
@ 014   ----------------------------------------
	.byte	W24
	.byte	W03
	.byte		EOT   
	.byte		TIE   , Fs0 
	.byte	W68
	.byte	W01
@ 015   ----------------------------------------
	.byte	W68
	.byte		EOT   
	.byte		N68   , Fn0 
	.byte	W28
@ 016   ----------------------------------------
	.byte	W40
	.byte		        Gs0 
	.byte	W56
@ 017   ----------------------------------------
	.byte	W13
	.byte		TIE   , An0 
	.byte	W80
	.byte	W03
@ 018   ----------------------------------------
	.byte	W54
	.byte		EOT   
	.byte		VOICE , 37
	.byte		N68   , Bn0 
	.byte	W42
@ 019   ----------------------------------------
	.byte	W24
	.byte	W03
	.byte		        Dn1 
	.byte	W68
	.byte		TIE   , Gs0 
	.byte	W01
@ 020   ----------------------------------------
	.byte	W96
@ 021   ----------------------------------------
	.byte	W40
	.byte		EOT   
	.byte		N68   , Cs1 
	.byte	W56
@ 022   ----------------------------------------
	.byte	W13
	.byte		        En1 
	.byte	W68
	.byte	W01
	.byte		TIE   , As0 
	.byte	W14
@ 023   ----------------------------------------
	.byte	W96
@ 024   ----------------------------------------
	.byte	W24
	.byte	W03
	.byte		EOT   
	.byte		VOICE , 38
	.byte		TIE   , Ds1 
	.byte	W68
	.byte	W01
@ 025   ----------------------------------------
	.byte	W96
@ 026   ----------------------------------------
	.byte	W96
@ 027   ----------------------------------------
	.byte	W13
	.byte		EOT   
	.byte		VOICE , 51
	.byte		TIE   , Dn0 
	.byte	W80
	.byte	W03
@ 028   ----------------------------------------
	.byte	W96
@ 029   ----------------------------------------
	.byte	W92
	.byte	W03
	.byte		EOT   
	.byte	FINE

@**************** Track 2 (Midi-Chn.2) ****************@

Title_2:
	.byte	KEYSH , Title_key+0
@ 000   ----------------------------------------
	.byte		VOICE , 100
	.byte		VOL   , 88*Title_mvl/mxv
	.byte		BEND  , c_v+6
	.byte	W96
@ 001   ----------------------------------------
	.byte	W96
@ 002   ----------------------------------------
	.byte	W80
	.byte	W02
	.byte		TIE   , Cn2 , v088
	.byte	W14
@ 003   ----------------------------------------
	.byte	W96
@ 004   ----------------------------------------
	.byte	W24
	.byte	W03
	.byte		EOT   
	.byte	W68
	.byte	W01
@ 005   ----------------------------------------
	.byte	W96
@ 006   ----------------------------------------
	.byte	W96
@ 007   ----------------------------------------
	.byte	W13
	.byte		VOICE , 49
	.byte		TIE   , Ds3 , v104
	.byte	W80
	.byte	W03
@ 008   ----------------------------------------
	.byte	W54
	.byte		EOT   
	.byte		TIE   , Cs3 
	.byte	W42
@ 009   ----------------------------------------
	.byte	W92
	.byte	W02
	.byte		EOT   
	.byte	W01
	.byte		VOICE , 116
	.byte		N08   , Cn1 , v127
	.byte	W01
@ 010   ----------------------------------------
	.byte	W96
@ 011   ----------------------------------------
	.byte	W96
@ 012   ----------------------------------------
	.byte	W80
	.byte	W02
	.byte		VOICE , 49
	.byte		N68   , As2 , v104
	.byte	W14
@ 013   ----------------------------------------
	.byte	W96
@ 014   ----------------------------------------
	.byte	W24
	.byte	W03
	.byte		        An2 
	.byte	W68
	.byte	W01
@ 015   ----------------------------------------
	.byte	W68
	.byte		        Bn2 
	.byte	W28
@ 016   ----------------------------------------
	.byte	W96
@ 017   ----------------------------------------
	.byte	W13
	.byte		        Cn3 
	.byte	W80
	.byte	W03
@ 018   ----------------------------------------
	.byte	W54
	.byte		VOICE , 92
	.byte		N68   , Fs3 
	.byte	W42
@ 019   ----------------------------------------
	.byte	W24
	.byte	W03
	.byte		        Dn3 
	.byte	W68
	.byte		        Ds3 
	.byte	W01
@ 020   ----------------------------------------
	.byte	W96
@ 021   ----------------------------------------
	.byte	W40
	.byte		        Gs3 
	.byte	W56
@ 022   ----------------------------------------
	.byte	W13
	.byte		        En3 
	.byte	W68
	.byte	W01
	.byte		        Fn3 
	.byte	W14
@ 023   ----------------------------------------
	.byte	W96
@ 024   ----------------------------------------
	.byte	W96
@ 025   ----------------------------------------
	.byte	W96
@ 026   ----------------------------------------
	.byte	W96
@ 027   ----------------------------------------
	.byte	W13
	.byte		VOICE , 49
	.byte		TIE   , Fn3 , v088
	.byte	W80
	.byte	W03
@ 028   ----------------------------------------
	.byte	W96
@ 029   ----------------------------------------
	.byte	W24
	.byte	W02
	.byte		EOT   
	.byte	W68
	.byte	W01
	.byte	FINE

@**************** Track 3 (Midi-Chn.3) ****************@

Title_3:
	.byte	KEYSH , Title_key+0
@ 000   ----------------------------------------
	.byte		VOICE , 100
	.byte		VOL   , 88*Title_mvl/mxv
	.byte		BEND  , c_v+0
	.byte	W96
@ 001   ----------------------------------------
	.byte	W40
	.byte		TIE   , Cn1 , v104
	.byte	W56
@ 002   ----------------------------------------
	.byte	W80
	.byte	W01
	.byte		EOT   
	.byte	W01
	.byte		VOICE , 94
	.byte		TIE   , Cn2 
	.byte	W14
@ 003   ----------------------------------------
	.byte	W96
@ 004   ----------------------------------------
	.byte	W96
@ 005   ----------------------------------------
	.byte	W96
@ 006   ----------------------------------------
	.byte	W96
@ 007   ----------------------------------------
	.byte	W13
	.byte		EOT   
	.byte		VOICE , 49
	.byte		TIE   , Gn3 
	.byte	W80
	.byte	W03
@ 008   ----------------------------------------
	.byte	W54
	.byte		EOT   
	.byte		TIE   , Gs3 
	.byte	W42
@ 009   ----------------------------------------
	.byte	W92
	.byte	W02
	.byte		EOT   
	.byte	W01
	.byte		VOICE , 118
	.byte		N08   , Cn2 , v127
	.byte	W01
@ 010   ----------------------------------------
	.byte	W96
@ 011   ----------------------------------------
	.byte	W96
@ 012   ----------------------------------------
	.byte	W80
	.byte	W02
	.byte		VOICE , 49
	.byte		N68   , As2 , v104
	.byte	W14
@ 013   ----------------------------------------
	.byte	W96
@ 014   ----------------------------------------
	.byte	W24
	.byte	W03
	.byte		        An2 
	.byte	W68
	.byte	W01
@ 015   ----------------------------------------
	.byte	W68
	.byte		        Bn2 
	.byte	W28
@ 016   ----------------------------------------
	.byte	W96
@ 017   ----------------------------------------
	.byte	W13
	.byte		VOICE , 116
	.byte		N08   , Cn1 , v127
	.byte	W80
	.byte	W03
@ 018   ----------------------------------------
	.byte	W54
	.byte		VOICE , 92
	.byte		N48   , Fs3 , v104
	.byte	W42
@ 019   ----------------------------------------
	.byte	W24
	.byte	W03
	.byte		        Dn3 
	.byte	W68
	.byte		        Ds3 
	.byte	W01
@ 020   ----------------------------------------
	.byte	W96
@ 021   ----------------------------------------
	.byte	W40
	.byte		        Gs3 
	.byte	W56
@ 022   ----------------------------------------
	.byte	W13
	.byte		        En3 
	.byte	W68
	.byte	W01
	.byte		        Fn3 
	.byte	W14
@ 023   ----------------------------------------
	.byte	W96
@ 024   ----------------------------------------
	.byte	W24
	.byte	W03
	.byte		VOICE , 49
	.byte	W32
	.byte	W02
	.byte		N32   , As4 , v088
	.byte	W32
	.byte	W02
	.byte		        An4 
	.byte	W01
@ 025   ----------------------------------------
	.byte	W32
	.byte	W02
	.byte		        Fn4 
	.byte	W60
	.byte	W02
@ 026   ----------------------------------------
	.byte	W06
	.byte		        Fs4 
	.byte	W32
	.byte	W02
	.byte		        Bn3 
	.byte	W32
	.byte	W03
	.byte		        As3 
	.byte	W21
@ 027   ----------------------------------------
	.byte	W13
	.byte		TIE   , An3 
	.byte	W80
	.byte	W03
@ 028   ----------------------------------------
	.byte	W96
@ 029   ----------------------------------------
	.byte	W24
	.byte	W02
	.byte		EOT   
	.byte	W68
	.byte	W01
	.byte	FINE

@**************** Track 4 (Midi-Chn.4) ****************@

Title_4:
	.byte	KEYSH , Title_key+0
@ 000   ----------------------------------------
	.byte		VOICE , 29
	.byte		VOL   , 88*Title_mvl/mxv
	.byte		BEND  , c_v+6
	.byte		TIE   , Cn0 , v116
	.byte	W96
@ 001   ----------------------------------------
	.byte	W96
@ 002   ----------------------------------------
	.byte	W96
@ 003   ----------------------------------------
	.byte	W96
@ 004   ----------------------------------------
	.byte	W96
@ 005   ----------------------------------------
	.byte	W96
@ 006   ----------------------------------------
	.byte	W96
@ 007   ----------------------------------------
	.byte	W96
@ 008   ----------------------------------------
	.byte	W96
@ 009   ----------------------------------------
	.byte	W92
	.byte	W03
	.byte		EOT   
	.byte		VOICE , 81
	.byte		N01   , Cn0 , v127
	.byte	W01
@ 010   ----------------------------------------
	.byte	W96
@ 011   ----------------------------------------
	.byte	W96
@ 012   ----------------------------------------
	.byte	W80
	.byte	W02
	.byte		VOICE , 113
	.byte		N08   , Cn4 , v040
	.byte	W08
	.byte		        Bn3 
	.byte	W06
@ 013   ----------------------------------------
	.byte	W03
	.byte		        Gn3 
	.byte	W08
	.byte		        Fs3 
	.byte	W09
	.byte		        An3 
	.byte	W08
	.byte		        As3 
	.byte	W09
	.byte		        Dn4 
	.byte	W09
	.byte		        Ds4 
	.byte	W08
	.byte		        As3 
	.byte	W09
	.byte		        An3 
	.byte	W08
	.byte		        Fn3 
	.byte	W09
	.byte		        En3 
	.byte	W08
	.byte		        Gs3 
	.byte	W08
@ 014   ----------------------------------------
	.byte	W01
	.byte		        An3 
	.byte	W09
	.byte		        Cs4 
	.byte	W08
	.byte		        Dn4 
	.byte	W09
	.byte		        Gs3 
	.byte	W08
	.byte		        Gn3 
	.byte	W09
	.byte		        Ds3 
	.byte	W08
	.byte		        Dn3 
	.byte	W09
	.byte		        Gn3 
	.byte	W09
	.byte		        Gs3 
	.byte	W08
	.byte		        Cn4 
	.byte	W09
	.byte		        Cs4 
	.byte	W08
	.byte		        Fs3 
	.byte	W01
@ 015   ----------------------------------------
	.byte	W08
	.byte		        Fn3 
	.byte	W08
	.byte		        Cs3 
	.byte	W09
	.byte		        Cn3 
	.byte	W09
	.byte		        Fs3 
	.byte	W08
	.byte		        Gn3 
	.byte	W09
	.byte		        Bn3 
	.byte	W08
	.byte		        Cn4 
	.byte	W09
	.byte		VOICE , 49
	.byte		N68   , Dn3 , v104
	.byte	W28
@ 016   ----------------------------------------
	.byte	W96
@ 017   ----------------------------------------
	.byte	W13
	.byte		        En3 
	.byte	W80
	.byte	W03
@ 018   ----------------------------------------
	.byte	W54
	.byte		VOICE , 14
	.byte		N32   , Dn3 , v088
	.byte	W32
	.byte	W02
	.byte		N17   , Cs3 
	.byte	W08
@ 019   ----------------------------------------
	.byte	W10
	.byte		        Bn2 
	.byte	W17
	.byte		N68   , Fs2 
	.byte	W68
	.byte		        Gs2 
	.byte	W01
@ 020   ----------------------------------------
	.byte	W96
@ 021   ----------------------------------------
	.byte	W40
	.byte		N32   , En3 
	.byte	W32
	.byte	W03
	.byte		N17   , Ds3 
	.byte	W17
	.byte		        Cs3 
	.byte	W04
@ 022   ----------------------------------------
	.byte	W13
	.byte		N68   , Gs2 
	.byte	W68
	.byte	W01
	.byte		        As2 
	.byte	W14
@ 023   ----------------------------------------
	.byte	W96
@ 024   ----------------------------------------
	.byte	W24
	.byte	W03
	.byte		VOICE , 33
	.byte		TIE   , Ds1 , v127
	.byte	W68
	.byte	W01
@ 025   ----------------------------------------
	.byte	W68
	.byte		EOT   
	.byte		TIE   
	.byte	W28
@ 026   ----------------------------------------
	.byte	W72
	.byte	W02
	.byte		EOT   
	.byte	W01
	.byte		N32   
	.byte	W21
@ 027   ----------------------------------------
	.byte	W13
	.byte		TIE   , Dn1 
	.byte	W80
	.byte	W03
@ 028   ----------------------------------------
	.byte	W19
	.byte		EOT   
	.byte	W76
	.byte	W01
@ 029   ----------------------------------------
	.byte	W92
	.byte	W03
	.byte	FINE

@**************** Track 5 (Midi-Chn.5) ****************@

Title_5:
	.byte	KEYSH , Title_key+0
@ 000   ----------------------------------------
	.byte		VOICE , 88
	.byte		VOL   , 88*Title_mvl/mxv
	.byte		BEND  , c_v+0
	.byte	W96
@ 001   ----------------------------------------
	.byte	W40
	.byte		N68   , Cn4 , v088
	.byte	W56
@ 002   ----------------------------------------
	.byte	W13
	.byte		        Ds4 
	.byte	W68
	.byte	W01
	.byte		TIE   , Dn4 
	.byte	W14
@ 003   ----------------------------------------
	.byte	W96
@ 004   ----------------------------------------
	.byte	W96
@ 005   ----------------------------------------
	.byte	W68
	.byte		EOT   
	.byte	W28
@ 006   ----------------------------------------
	.byte	W96
@ 007   ----------------------------------------
	.byte	W13
	.byte		N68   , Cn4 
	.byte	W68
	.byte	W01
	.byte		        Gn4 
	.byte	W14
@ 008   ----------------------------------------
	.byte	W54
	.byte		TIE   , Gs4 
	.byte	W42
@ 009   ----------------------------------------
	.byte	W96
@ 010   ----------------------------------------
	.byte	W96
@ 011   ----------------------------------------
	.byte	W40
	.byte		EOT   
	.byte	W56
@ 012   ----------------------------------------
	.byte	W80
	.byte	W02
	.byte		TIE   , Fs3 
	.byte	W14
@ 013   ----------------------------------------
	.byte	W96
@ 014   ----------------------------------------
	.byte	W24
	.byte	W03
	.byte		EOT   
	.byte		TIE   
	.byte	W68
	.byte	W01
@ 015   ----------------------------------------
	.byte	W68
	.byte		EOT   
	.byte		TIE   , Gs3 
	.byte	W28
@ 016   ----------------------------------------
	.byte	W96
@ 017   ----------------------------------------
	.byte	W13
	.byte		EOT   
	.byte		TIE   , An3 
	.byte	W80
	.byte	W03
@ 018   ----------------------------------------
	.byte	W54
	.byte		EOT   
	.byte	W42
@ 019   ----------------------------------------
	.byte	W96
@ 020   ----------------------------------------
	.byte	W68
	.byte		N68   , Gs3 
	.byte	W28
@ 021   ----------------------------------------
	.byte	W96
@ 022   ----------------------------------------
	.byte	W96
@ 023   ----------------------------------------
	.byte	W54
	.byte		        As3 
	.byte	W42
@ 024   ----------------------------------------
	.byte	W24
	.byte	W03
	.byte		TIE   
	.byte	W68
	.byte	W01
@ 025   ----------------------------------------
	.byte	W68
	.byte		EOT   
	.byte		TIE   , Fs3 
	.byte	W28
@ 026   ----------------------------------------
	.byte	W96
@ 027   ----------------------------------------
	.byte	W13
	.byte		EOT   
	.byte		TIE   , Dn4 
	.byte	W80
	.byte	W03
@ 028   ----------------------------------------
	.byte	W96
@ 029   ----------------------------------------
	.byte	W24
	.byte	W02
	.byte		EOT   
	.byte	W68
	.byte	W01
	.byte	FINE

@**************** Track 6 (Midi-Chn.6) ****************@

Title_6:
	.byte	KEYSH , Title_key+0
@ 000   ----------------------------------------
	.byte		VOICE , 88
	.byte		VOL   , 88*Title_mvl/mxv
	.byte		BEND  , c_v+6
	.byte	W96
@ 001   ----------------------------------------
	.byte	W40
	.byte		N68   , Cn4 , v088
	.byte	W56
@ 002   ----------------------------------------
	.byte	W13
	.byte		        Ds4 
	.byte	W68
	.byte	W01
	.byte		TIE   , Dn4 
	.byte	W14
@ 003   ----------------------------------------
	.byte	W96
@ 004   ----------------------------------------
	.byte	W96
@ 005   ----------------------------------------
	.byte	W68
	.byte		EOT   
	.byte	W28
@ 006   ----------------------------------------
	.byte	W96
@ 007   ----------------------------------------
	.byte	W13
	.byte		N68   , Cn4 
	.byte	W68
	.byte	W01
	.byte		        Gn4 
	.byte	W14
@ 008   ----------------------------------------
	.byte	W54
	.byte		TIE   , Gs4 
	.byte	W42
@ 009   ----------------------------------------
	.byte	W96
@ 010   ----------------------------------------
	.byte	W96
@ 011   ----------------------------------------
	.byte	W40
	.byte		EOT   
	.byte	W56
@ 012   ----------------------------------------
	.byte	W80
	.byte	W02
	.byte		N04   , Fs3 
	.byte	W14
@ 013   ----------------------------------------
	.byte	W96
@ 014   ----------------------------------------
	.byte	W24
	.byte	W03
	.byte		N04   
	.byte	W68
	.byte	W01
@ 015   ----------------------------------------
	.byte	W68
	.byte		        Gs3 
	.byte	W28
@ 016   ----------------------------------------
	.byte	W96
@ 017   ----------------------------------------
	.byte	W13
	.byte		        An3 
	.byte	W80
	.byte	W03
@ 018   ----------------------------------------
	.byte	W96
@ 019   ----------------------------------------
	.byte	W96
@ 020   ----------------------------------------
	.byte	W68
	.byte		        Gs3 
	.byte	W28
@ 021   ----------------------------------------
	.byte	W96
@ 022   ----------------------------------------
	.byte	W96
@ 023   ----------------------------------------
	.byte	W54
	.byte		        As3 
	.byte	W42
@ 024   ----------------------------------------
	.byte	W24
	.byte	W03
	.byte		N04   
	.byte	W68
	.byte	W01
@ 025   ----------------------------------------
	.byte	W68
	.byte		        Fs3 
	.byte	W28
@ 026   ----------------------------------------
	.byte	W96
@ 027   ----------------------------------------
	.byte	W13
	.byte		        Dn4 
	.byte	W80
	.byte	W03
@ 028   ----------------------------------------
	.byte	W96
@ 029   ----------------------------------------
	.byte	W92
	.byte	W03
	.byte	FINE

@******************************************************@
	.align	2

Title:
	.byte	6	@ NumTrks
	.byte	0	@ NumBlks
	.byte	Title_pri	@ Priority
	.byte	Title_rev	@ Reverb.

	.word	Title_grp

	.word	Title_1
	.word	Title_2
	.word	Title_3
	.word	Title_4
	.word	Title_5
	.word	Title_6

	.end
